<svg width="40" height="36" viewBox="0 0 40 36" fill="none" xmlns="http://www.w3.org/2000/svg">
<g clip-path="url(#clip0_4502_103)">
<circle cx="16" cy="18" r="16" fill="#4640DE"/>
<mask id="path-2-inside-1_4502_103" fill="white">
<path d="M16 29C18.6652 29 21.3304 26.8953 23.0607 25.179C23.4599 24.7831 22.9792 24.2122 22.4822 24.4749C20.6013 25.469 18.0181 26.6 16 26.6C13.9819 26.6 11.3987 25.469 9.5178 24.4749C9.02076 24.2122 8.54012 24.7831 8.93926 25.179C10.6696 26.8953 13.3348 29 16 29Z"/>
</mask>
<path d="M23.0607 25.179L25.1734 27.3089V27.3089L23.0607 25.179ZM8.93926 25.179L6.82658 27.3089H6.82658L8.93926 25.179ZM9.5178 24.4749L10.9197 21.8226L10.9197 21.8226L9.5178 24.4749ZM22.4822 24.4749L21.0803 21.8226L21.0803 21.8226L22.4822 24.4749ZM20.948 23.0491C20.1783 23.8126 19.2652 24.5953 18.3201 25.1712C17.3491 25.7627 16.5672 26 16 26V32C18.098 32 19.9813 31.1849 21.4419 30.2951C22.9282 29.3895 24.2129 28.2616 25.1734 27.3089L20.948 23.0491ZM16 26C15.4328 26 14.6509 25.7627 13.6799 25.1712C12.7348 24.5953 11.8217 23.8126 11.052 23.0491L6.82658 27.3089C7.78708 28.2616 9.07177 29.3895 10.5581 30.2951C12.0187 31.1849 13.902 32 16 32V26ZM8.11593 27.1272C9.1314 27.6639 10.3827 28.2629 11.6934 28.7336C12.967 29.1911 14.4921 29.6 16 29.6V23.6C15.4899 23.6 14.7143 23.4434 13.7216 23.0868C12.7658 22.7436 11.7851 22.28 10.9197 21.8226L8.11593 27.1272ZM16 29.6C17.5079 29.6 19.033 29.1911 20.3066 28.7336C21.6173 28.2629 22.8686 27.6639 23.8841 27.1272L21.0803 21.8226C20.2149 22.28 19.2342 22.7436 18.2785 23.0868C17.2857 23.4434 16.5101 23.6 16 23.6V29.6ZM25.1734 27.3089C25.7674 26.7197 26.1776 25.8995 26.2071 24.9593C26.2356 24.0551 25.905 23.2526 25.4152 22.663C24.4114 21.4547 22.6321 21.0024 21.0803 21.8226L23.8841 27.1272C22.8293 27.6847 21.5389 27.3865 20.7999 26.4969C20.4425 26.0667 20.1883 25.4648 20.2101 24.7708C20.2331 24.0407 20.5536 23.4403 20.948 23.0491L25.1734 27.3089ZM11.052 23.0491C11.4464 23.4403 11.7669 24.0407 11.7899 24.7708C11.8117 25.4648 11.5575 26.0667 11.2001 26.4969C10.4611 27.3865 9.17068 27.6847 8.11593 27.1272L10.9197 21.8226C9.36787 21.0024 7.5886 21.4547 6.58483 22.663C6.09504 23.2526 5.76443 24.0551 5.79286 24.9593C5.82241 25.8995 6.23259 26.7197 6.82658 27.3089L11.052 23.0491Z" fill="white" mask="url(#path-2-inside-1_4502_103)"/>
<path d="M21.7119 11.3158C21.3919 10.9936 21.3919 10.4773 21.7119 10.1552L23.4303 8.02632L23.4303 7.98937C23.8656 7.55866 24.5715 7.55866 25.0068 7.98937C25.4421 8.42007 25.4421 9.11837 25.0068 9.54907L22.982 11.3158L22.9064 11.3828C22.7483 11.5077 22.5512 11.5766 22.3469 11.5766C22.1086 11.5766 21.8801 11.4828 21.7119 11.3158ZM8.66663 17.185C8.66663 15.2892 9.42782 13.4711 10.7828 12.1306C12.1377 10.79 13.9754 10.0369 15.8916 10.0369C19.8818 10.0369 23.1165 13.2372 23.1165 17.185C23.1165 21.1327 19.8818 24.333 15.8916 24.333C11.9013 24.333 8.66663 21.1327 8.66663 17.185Z" fill="white"/>
</g>
<defs>
<clipPath id="clip0_4502_103">
<rect width="32" height="32" fill="white" transform="translate(0 2)"/>
</clipPath>
</defs>
</svg>
